<svg width="19" height="18" viewBox="0 0 19 18" fill="none" xmlns="http://www.w3.org/2000/svg">
<path d="M9.50154 4.30786C11.9625 4.30786 13.9937 6.33911 13.9937 8.80005C13.9937 11.3 11.9625 13.2922 9.50154 13.2922C7.00154 13.2922 5.00935 11.3 5.00935 8.80005C5.00935 6.33911 7.00154 4.30786 9.50154 4.30786ZM9.50154 11.7297C11.1031 11.7297 12.3922 10.4407 12.3922 8.80005C12.3922 7.19849 11.1031 5.90942 9.50154 5.90942C7.86091 5.90942 6.57185 7.19849 6.57185 8.80005C6.57185 10.4407 7.89998 11.7297 9.50154 11.7297ZM15.2047 4.15161C15.2047 4.73755 14.7359 5.2063 14.15 5.2063C13.564 5.2063 13.0953 4.73755 13.0953 4.15161C13.0953 3.56567 13.564 3.09692 14.15 3.09692C14.7359 3.09692 15.2047 3.56567 15.2047 4.15161ZM18.1734 5.2063C18.2515 6.65161 18.2515 10.9875 18.1734 12.4329C18.0953 13.8391 17.7828 15.05 16.7672 16.1047C15.7515 17.1204 14.5015 17.4329 13.0953 17.511C11.65 17.5891 7.31404 17.5891 5.86873 17.511C4.46248 17.4329 3.25154 17.1204 2.19685 16.1047C1.18123 15.05 0.868726 13.8391 0.790601 12.4329C0.712476 10.9875 0.712476 6.65161 0.790601 5.2063C0.868726 3.80005 1.18123 2.55005 2.19685 1.53442C3.25154 0.518799 4.46248 0.206299 5.86873 0.128174C7.31404 0.0500488 11.65 0.0500488 13.0953 0.128174C14.5015 0.206299 15.7515 0.518799 16.7672 1.53442C17.7828 2.55005 18.0953 3.80005 18.1734 5.2063ZM16.2984 13.9563C16.7672 12.8235 16.65 10.0891 16.65 8.80005C16.65 7.55005 16.7672 4.81567 16.2984 3.6438C15.9859 2.90161 15.4 2.27661 14.6578 2.00317C13.4859 1.53442 10.7515 1.65161 9.50154 1.65161C8.21248 1.65161 5.4781 1.53442 4.34529 2.00317C3.56404 2.31567 2.9781 2.90161 2.6656 3.6438C2.19685 4.81567 2.31404 7.55005 2.31404 8.80005C2.31404 10.0891 2.19685 12.8235 2.6656 13.9563C2.9781 14.7375 3.56404 15.3235 4.34529 15.636C5.4781 16.1047 8.21248 15.9875 9.50154 15.9875C10.7515 15.9875 13.4859 16.1047 14.6578 15.636C15.4 15.3235 16.025 14.7375 16.2984 13.9563Z" fill="#677C92"/>
</svg>
