<svg width="15" height="17" viewBox="0 0 15 17" fill="none" xmlns="http://www.w3.org/2000/svg">
<path d="M14.8813 6.76245H14.85C13.4125 6.76245 12.1 6.32495 11.0375 5.5437V11.1375C11.0375 13.95 8.75626 16.2 5.94376 16.2C3.13126 16.2 0.881262 13.95 0.881262 11.1375C0.881262 8.32495 3.13126 6.0437 5.94376 6.0437C6.19376 6.0437 6.41251 6.07495 6.66251 6.1062V8.9187C6.41251 8.82495 6.19376 8.7937 5.94376 8.7937C4.66251 8.7937 3.60001 9.8562 3.60001 11.1375C3.60001 12.4187 4.66251 13.4812 5.94376 13.4812C7.22501 13.4812 8.28751 12.4187 8.28751 11.1375V0.199951H11.0375C11.0375 0.231201 11.0375 0.231201 11.0375 0.262451C11.0375 0.481201 11.0375 0.699951 11.1 0.918701C11.2875 1.94995 11.9125 2.8562 12.7875 3.4187C13.3813 3.82495 14.1 4.0437 14.85 4.0437C14.85 4.0437 14.85 4.0437 14.8813 4.0437V6.76245Z" fill="#677C92"/>
</svg>
