<svg width="130" height="144" viewBox="0 0 130 144" fill="none" xmlns="http://www.w3.org/2000/svg">
<g clip-path="url(#clip0_36_253)">
<path d="M88.4281 89.2106C159.311 136.617 136.274 154.282 44.2141 138.193C20.1602 133.989 0 116.263 0 89.2106C0 62.1584 19.7953 40.2283 44.2141 40.2283C68.6328 40.2283 65.9346 74.167 88.4281 89.2106Z" fill="#3F3D56"/>
<path opacity="0.1" d="M94.7655 135.394C110.231 135.394 122.768 134.273 122.768 132.89C122.768 131.506 110.231 130.385 94.7655 130.385C79.3003 130.385 66.7632 131.506 66.7632 132.89C66.7632 134.273 79.3003 135.394 94.7655 135.394Z" fill="black"/>
<path opacity="0.1" d="M39.5389 52.8462C47.7358 52.8462 54.3808 51.725 54.3808 50.3419C54.3808 48.9587 47.7358 47.8375 39.5389 47.8375C31.3419 47.8375 24.6969 48.9587 24.6969 50.3419C24.6969 51.725 31.3419 52.8462 39.5389 52.8462Z" fill="black"/>
<path opacity="0.1" d="M38.761 56.5069C32.3928 56.5056 26.1541 58.3052 20.7657 61.6976C15.3772 65.09 11.0588 69.937 8.3093 75.6785C11.4699 72.1884 15.3278 69.3999 19.6339 67.4932C23.9399 65.5865 28.5983 64.604 33.3079 64.6092C51.9471 64.6092 67.058 79.7135 67.058 98.3444C67.0656 103.385 65.9383 108.362 63.7596 112.908C69.402 106.708 72.5232 98.6238 72.511 90.2421C72.5111 71.6111 57.4002 56.5069 38.761 56.5069Z" fill="black"/>
<path opacity="0.3" d="M67.058 98.1971C67.0656 103.238 65.9383 108.215 63.7596 112.761C60.5991 116.251 56.7411 119.039 52.4351 120.946C48.129 122.853 43.4706 123.835 38.761 123.83C20.1218 123.83 5.01093 108.726 5.01093 90.0948C5.00331 85.0544 6.13062 80.0769 8.3093 75.5312C11.4699 72.0411 15.3278 69.2526 19.6339 67.3459C23.9399 65.4392 28.5983 64.4567 33.3079 64.4619C51.9471 64.4619 67.058 79.5662 67.058 98.1971Z" fill="#4CAF50"/>
<path d="M38.761 123.996C20.0597 123.996 4.84506 108.788 4.84506 90.0949C4.83148 85.029 5.96466 80.0256 8.15976 75.4595C10.9228 69.6898 15.2624 64.8191 20.6773 61.41C26.0922 58.0009 32.3615 56.1926 38.761 56.1938C57.4624 56.1938 72.6769 71.4018 72.6769 90.0949C72.6772 94.5469 71.8001 98.9553 70.0958 103.069C68.3915 107.182 65.8933 110.919 62.7438 114.067C59.5944 117.215 55.8554 119.712 51.7404 121.416C47.6254 123.119 43.215 123.996 38.761 123.996ZM38.761 56.5254C25.9109 56.5254 14.0165 64.0137 8.45887 75.603C6.28525 80.1243 5.16319 85.0786 5.17673 90.0949C5.17673 108.605 20.2425 123.664 38.761 123.664C43.1715 123.665 47.5387 122.796 51.6135 121.11C55.6883 119.423 59.3907 116.95 62.5093 113.833C65.628 110.715 68.1018 107.015 69.7894 102.942C71.4771 98.8687 72.3456 94.5033 72.3452 90.0949C72.3452 71.5845 57.2794 56.5254 38.761 56.5254Z" fill="white"/>
<path d="M115.975 124.424C113.524 127.628 113.804 131.959 113.804 131.959C113.804 131.959 118.059 131.094 120.51 127.89C122.961 124.686 122.681 120.355 122.681 120.355C122.681 120.355 118.427 121.22 115.975 124.424Z" fill="#D0CDE1"/>
<path d="M117.582 125.144C117.106 129.149 113.886 132.06 113.886 132.06C113.886 132.06 111.437 128.477 111.913 124.471C112.388 120.465 115.609 117.555 115.609 117.555C115.609 117.555 118.057 121.138 117.582 125.144Z" fill="#4CAF50"/>
<path d="M28.6603 31.3101C36.3517 31.3101 42.5867 25.0778 42.5867 17.3898C42.5867 9.70189 36.3517 3.46957 28.6603 3.46957C20.969 3.46957 14.7339 9.70189 14.7339 17.3898C14.7339 25.0778 20.969 31.3101 28.6603 31.3101Z" fill="#FF6584"/>
<path d="M58.8539 31.5824C58.8606 45.487 50.5932 50.3453 40.3929 50.3502C40.156 50.3503 39.9202 50.3478 39.6855 50.3426C39.2128 50.3327 38.745 50.3114 38.2821 50.2787C29.0756 49.6316 21.92 44.5315 21.9137 31.6004C21.9072 18.2182 39.0099 1.32188 40.2925 0.0725525C40.2936 0.0725525 40.2936 0.0725523 40.2948 0.0714169C40.3435 0.0238028 40.3684 0 40.3684 0C40.3684 0 58.8471 17.679 58.8539 31.5824Z" fill="#4CAF50"/>
<path d="M39.7196 48.2237L46.4703 38.786L39.7031 49.2594L39.6855 50.3426C39.2128 50.3327 38.745 50.3114 38.2821 50.2787L39.0031 36.3682L38.9974 36.2605L39.0098 36.2401L39.0783 34.9257L32.284 24.4329L39.0983 33.941L39.1154 34.2197L39.6601 23.7098L33.8428 12.8663L39.7306 21.8627L40.2925 0.0725465L40.2947 3.05176e-05L40.2948 0.0714109L40.2079 17.2552L45.9895 10.4401L40.1837 18.7351L40.0352 28.1457L45.4348 19.1122L40.0144 29.5293L39.9319 34.7621L47.7681 22.1874L39.9022 36.5876L39.7196 48.2237Z" fill="#3F3D56"/>
<path d="M95.0142 39.5489C93.244 36.5592 89.7418 36.4198 89.7418 36.4198C89.7418 36.4198 86.3291 35.9836 84.1399 40.5371C82.0994 44.7812 79.2832 48.8791 83.6865 49.8726L84.4819 47.3982L84.9745 50.0568C85.6014 50.1019 86.2304 50.1126 86.8585 50.089C91.5741 49.9368 96.065 50.1335 95.9204 48.4421C95.7282 46.1936 96.7175 42.4257 95.0142 39.5489Z" fill="#2F2E41"/>
<path d="M87.2045 67.6035L87.6599 72.1549L98.2088 71.0171L98.4365 67.6035H87.2045Z" fill="#A0616A"/>
<path d="M86.0662 70.1067L85.7626 72.7617C85.7626 72.7617 82.2716 77.6167 82.5752 85.961C82.8788 94.3054 77.794 131.4 81.4368 131.703C85.0796 132.007 91.6063 132.462 91.9099 131.324C92.2134 130.186 92.8206 87.0231 92.8206 87.0231C92.8206 87.0231 94.4143 131.378 97.1464 131.53C99.8785 131.681 109.061 131.985 109.061 130.847C109.061 129.709 101.017 78.9062 101.017 78.9062L99.7267 74.6582L98.4365 69.424C98.4365 69.424 90.392 70.7894 88.1912 70.2584C85.9903 69.7274 86.0662 70.1067 86.0662 70.1067Z" fill="#2F2E41"/>
<path d="M89.709 49.094C92.3915 49.094 94.5661 46.9204 94.5661 44.2391C94.5661 41.5578 92.3915 39.3842 89.709 39.3842C87.0265 39.3842 84.8519 41.5578 84.8519 44.2391C84.8519 46.9204 87.0265 49.094 89.709 49.094Z" fill="#A0616A"/>
<path d="M98.2089 52.2801L97.2868 53.6212L96.6964 54.4792L95.7044 55.9213L90.7715 56.3005C90.7715 56.3005 89.5732 55.9137 88.1904 55.3485C87.6797 55.1392 87.1431 54.9055 86.6331 54.6575C84.6546 53.6971 83.067 52.5251 84.852 51.7491C85.1689 51.613 85.4734 51.4495 85.7619 51.2605C86.0244 51.089 86.2688 50.8913 86.4912 50.6704C86.9485 50.2124 87.287 49.6498 87.4775 49.0314C87.6679 48.413 87.7045 47.7575 87.5841 47.1217L92.3652 46.439C92.2263 47.6512 93.4323 48.9734 94.7839 50.0529C95.2278 50.4086 95.6885 50.7371 96.1219 51.0269C97.2579 51.787 98.2089 52.2801 98.2089 52.2801Z" fill="#A0616A"/>
<path d="M91.6822 53.7214C91.6822 53.7214 87.0148 52.9249 85.9524 51.256C85.9524 51.256 81.3609 51.8249 81.7404 54.2524C82.1198 56.6798 85.9144 69.955 85.9144 69.955C85.9144 69.955 95.4009 68.1344 98.8919 69.4999L101.017 52.5835C101.017 52.5835 100.258 50.9146 98.816 51.3698C97.374 51.8249 96.8049 51.4077 96.8049 51.4077C96.8049 51.4077 95.1732 53.7214 91.6822 53.7214Z" fill="#D0CDE1"/>
<path d="M95.9321 80.3476C95.9321 80.3476 99.1954 83.9887 97.3741 84.5956C95.5527 85.2025 93.3518 82.1682 93.3518 82.1682L95.9321 80.3476Z" fill="#A0616A"/>
<path d="M96.9946 80.651C96.9946 80.651 94.3384 82.4716 95.325 83.6853C96.3116 84.8991 99.7267 82.6233 99.7267 82.1682C99.7267 81.713 96.9946 80.651 96.9946 80.651Z" fill="#A0616A"/>
<path d="M90.4679 70.7894L88.2671 71.1687L86.8251 60.4727C86.9083 58.5322 86.8441 56.5882 86.6331 54.6575C86.4722 53.3679 86.2036 52.1283 85.7619 51.2605C86.0244 51.089 86.2688 50.8913 86.4912 50.6703C87.0194 51.5071 87.9832 53.2791 88.1904 55.3485C88.2446 55.8667 88.2448 56.3891 88.1912 56.9074C87.8117 60.4727 87.8876 61.1555 87.8876 61.1555L90.4679 70.7894Z" fill="#2F2E41"/>
<path d="M85.3832 51.9008C85.3832 51.9008 81.8163 50.9146 81.5127 53.0386C81.2092 55.1627 81.5886 60.6244 82.4234 62.6726C83.2582 64.7208 86.1421 71.3963 86.1421 71.3963C86.1421 71.3963 91.3786 78.0718 91.6063 79.6648C91.834 81.2578 92.9723 82.9267 92.9723 82.9267L96.6151 80.5751L89.4813 68.5137L86.3698 60.1693C86.3698 60.1693 87.6599 52.5835 85.3832 51.9008Z" fill="#D0CDE1"/>
<path d="M99.3472 52.2042L101.017 52.5835C101.017 52.5835 102.535 59.1073 101.928 62.5968C101.32 66.0862 101.245 67.3 101.245 67.3L100.713 77.2374C100.713 77.2374 100.865 83.6094 99.8026 82.6233C98.7401 81.6371 96.6151 81.182 96.6151 81.182C96.6151 81.182 96.8428 78.3752 97.6776 77.6925C97.6776 77.6925 98.6642 72.4583 98.0571 70.1826C97.45 67.9068 99.3472 52.2042 99.3472 52.2042Z" fill="#D0CDE1"/>
<path d="M99.9544 59.5624L98.0191 70.7515L96.8428 70.2584L98.8919 59.5624L96.6963 54.4792L94.7839 50.0529C95.2278 50.4086 95.6885 50.7371 96.1218 51.0269L97.2868 53.6212L99.9544 59.5624Z" fill="#2F2E41"/>
<path d="M94.2315 39.2607L90.7716 37.4492L85.9935 38.1903L85.005 42.5545L87.4657 42.4599L88.1533 40.8565V42.4335L89.2887 42.3898L89.9477 39.8371L90.3597 42.5545L94.3963 42.4721L94.2315 39.2607Z" fill="#2F2E41"/>
<path d="M87.3965 132.89C88.6988 132.89 89.7545 132.494 89.7545 132.006C89.7545 131.518 88.6988 131.122 87.3965 131.122C86.0941 131.122 85.0384 131.518 85.0384 132.006C85.0384 132.494 86.0941 132.89 87.3965 132.89Z" fill="#2F2E41"/>
<path d="M103.314 132.89C104.616 132.89 105.672 132.494 105.672 132.006C105.672 131.518 104.616 131.122 103.314 131.122C102.011 131.122 100.955 131.518 100.955 132.006C100.955 132.494 102.011 132.89 103.314 132.89Z" fill="#2F2E41"/>
<path d="M43.7042 107.543C41.2921 109.112 38.5124 110.025 35.6395 110.193C32.7665 110.36 29.8995 109.776 27.3215 108.497L27.6865 107.753C30.794 109.279 34.3161 109.745 37.7137 109.08C41.1113 108.414 44.1972 106.654 46.4991 104.069C48.801 101.484 50.1919 98.2166 50.459 94.7663C50.7262 91.3159 49.8548 87.8731 47.9783 84.9648C46.1017 82.0566 43.3234 79.8431 40.0686 78.6633C36.8139 77.4834 33.262 77.4022 29.9566 78.432C26.6513 79.4618 23.7746 81.546 21.767 84.3654C19.7593 87.1848 18.7313 90.5842 18.8403 94.0431L18.0115 94.0685C17.9197 91.1582 18.5926 88.2746 19.9632 85.7052C21.3338 83.1358 23.3542 80.9704 25.8231 79.4247C28.2919 77.8791 31.1229 77.0073 34.0339 76.8961C36.9448 76.785 39.8341 77.4384 42.4137 78.7913C44.9933 80.1442 47.1731 82.1493 48.7358 84.6067C50.2985 87.064 51.1895 89.8879 51.3201 92.7968C51.4507 95.7057 50.8162 98.598 49.4799 101.185C48.1436 103.773 46.1522 105.965 43.7042 107.543Z" fill="white"/>
<path d="M36.204 92.5554C33.7521 93.0979 30.489 93.4285 28.1113 93.0833L31.0961 95.3553L22.7401 100.742L23.1895 101.439L31.5455 96.0518L32.3855 99.7074C33.0516 97.4 34.6988 94.565 36.204 92.5554Z" fill="white"/>
</g>
<defs>
<clipPath id="clip0_36_253">
<rect width="130" height="144" fill="white"/>
</clipPath>
</defs>
</svg>
